<svg width="43" height="80" viewBox="0 0 43 80" fill="none" xmlns="http://www.w3.org/2000/svg">
<path d="M30 60C30 61.3132 29.7413 62.6136 29.2388 63.8268C28.7362 65.0401 27.9997 66.1425 27.0711 67.0711C26.1425 67.9997 25.0401 68.7362 23.8268 69.2388C22.6136 69.7413 21.3132 70 20 70C18.6868 70 17.3864 69.7413 16.1732 69.2388C14.9599 68.7362 13.8575 67.9997 12.9289 67.0711C12.0003 66.1425 11.2638 65.0401 10.7612 63.8268C10.2587 62.6136 10 61.3132 10 60L14.9964 60C14.9964 60.6571 15.1258 61.3077 15.3773 61.9148C15.6287 62.5219 15.9973 63.0735 16.4619 63.5381C16.9265 64.0027 17.4781 64.3713 18.0852 64.6227C18.6923 64.8742 19.3429 65.0036 20 65.0036C20.6571 65.0036 21.3077 64.8742 21.9148 64.6227C22.5219 64.3713 23.0735 64.0027 23.5381 63.5381C24.0027 63.0735 24.3713 62.5219 24.6227 61.9148C24.8742 61.3077 25.0036 60.6571 25.0036 60H30Z" fill="#C4C4C4"/>
<path d="M25 37.5C25 36.1193 26.1193 35 27.5 35V35C28.8807 35 30 36.1193 30 37.5V60H25V37.5Z" fill="#C4C4C4"/>
<rect x="10" y="25" width="5" height="35" fill="#C4C4C4"/>
<path d="M40 25C40 23.0302 39.612 21.0796 38.8582 19.2597C38.1044 17.4399 36.9995 15.7863 35.6066 14.3934C34.2137 13.0005 32.5601 11.8956 30.7403 11.1418C28.9204 10.388 26.9698 10 25 10C23.0302 10 21.0796 10.388 19.2597 11.1418C17.4399 11.8956 15.7863 13.0005 14.3934 14.3934C13.0005 15.7863 11.8956 17.4399 11.1418 19.2597C10.388 21.0796 10 23.0302 10 25L15.0191 25C15.0191 23.6893 15.2772 22.3914 15.7788 21.1805C16.2804 19.9695 17.0156 18.8692 17.9424 17.9424C18.8692 17.0156 19.9695 16.2804 21.1805 15.7788C22.3914 15.2772 23.6893 15.0191 25 15.0191C26.3107 15.0191 27.6086 15.2772 28.8195 15.7788C30.0305 16.2804 31.1308 17.0156 32.0576 17.9424C32.9844 18.8692 33.7196 19.9695 34.2212 21.1805C34.7228 22.3914 34.9809 23.6893 34.9809 25H40Z" fill="#C4C4C4"/>
<rect x="35" y="25" width="5" height="35" fill="#C4C4C4"/>
<path d="M40 60C40 62.6264 39.4827 65.2272 38.4776 67.6537C37.4725 70.0802 35.9993 72.285 34.1421 74.1421C32.285 75.9993 30.0802 77.4725 27.6537 78.4776C25.2272 79.4827 22.6264 80 20 80C17.3736 80 14.7728 79.4827 12.3463 78.4776C9.91982 77.4725 7.71504 75.9993 5.85786 74.1421C4.00069 72.285 2.5275 70.0802 1.52241 67.6537C0.517315 65.2272 -2.2961e-07 62.6264 0 60L4.99607 60C4.99607 61.9703 5.38416 63.9214 6.13818 65.7418C6.8922 67.5621 7.99738 69.2161 9.39062 70.6094C10.7839 72.0026 12.4379 73.1078 14.2582 73.8618C16.0786 74.6158 18.0297 75.0039 20 75.0039C21.9703 75.0039 23.9214 74.6158 25.7418 73.8618C27.5621 73.1078 29.2161 72.0026 30.6094 70.6094C32.0026 69.2161 33.1078 67.5621 33.8618 65.7418C34.6158 63.9214 35.0039 61.9703 35.0039 60H40Z" fill="#919191"/>
<circle cx="38" cy="5" r="5" fill="#919191"/>
<path d="M35 24.5C35 23.1193 36.1193 22 37.5 22V22C38.8807 22 40 23.1193 40 24.5V60H35V24.5Z" fill="#919191"/>
<path d="M0 42.5C0 41.1193 1.11929 40 2.5 40V40C3.88071 40 5 41.1193 5 42.5V60H0V42.5Z" fill="#919191"/>
</svg>
